<?xml version="1.0" encoding="UTF-8"?>
<svg width="500px" height="500px" viewBox="0 0 500 500" version="1.1" xmlns="http://www.w3.org/2000/svg" xmlns:xlink="http://www.w3.org/1999/xlink">
    <!-- Generator: Sketch 52.5 (67469) - http://www.bohemiancoding.com/sketch -->
    <title>Logo 5 Copy 8</title>
    <desc>Created with Sketch.</desc>
    <g id="Logo-5-Copy-8" stroke="none" stroke-width="1" fill="none" fill-rule="evenodd">
        <rect id="Rectangle" fill="#FFFFFF" fill-rule="nonzero" x="0" y="0" width="500" height="500" rx="16"></rect>
        <g id="Group" transform="translate(78.000000, 191.000000)" fill="#000000">
            <path d="M5.99303136,6.02040816 L5.99303136,111.979592 L338.006969,111.979592 L338.006969,6.02040816 L5.99303136,6.02040816 Z M0,0 L344,0 L344,118 L0,118 L0,0 Z" id="Rectangle" fill-rule="nonzero"></path>
            <path d="M38.3554007,83.9485714 L38.3554007,32.5102041 L45.4032056,32.5102041 L54.8242509,59.7465306 L54.9680836,59.7465306 L64.3172125,32.5102041 L71.4369338,32.5102041 L71.4369338,83.9485714 L64.1014634,83.9485714 L64.1014634,52.6665306 L63.9576307,52.6665306 L56.6940767,74.7734694 L53.0263415,74.7734694 L45.8347038,52.6665306 L45.6908711,52.6665306 L45.6908711,83.9485714 L38.3554007,83.9485714 Z M88.6249473,83.9485714 L88.6249473,32.5102041 L95.9604177,32.5102041 L95.9604177,83.9485714 L88.6249473,83.9485714 Z M112.860766,83.9485714 L112.860766,32.5102041 L119.908571,32.5102041 L130.983692,63.5032653 L131.127525,63.5032653 L131.127525,32.5102041 L138.462996,32.5102041 L138.462996,83.9485714 L131.559023,83.9485714 L120.340069,53.0277551 L120.196236,53.0277551 L120.196236,83.9485714 L112.860766,83.9485714 Z M155.363344,83.9485714 L155.363344,32.5102041 L162.698814,32.5102041 L162.698814,83.9485714 L155.363344,83.9485714 Z M179.886827,83.9485714 L179.886827,32.5102041 L186.934632,32.5102041 L196.355678,59.7465306 L196.49951,59.7465306 L205.848639,32.5102041 L212.968361,32.5102041 L212.968361,83.9485714 L205.63289,83.9485714 L205.63289,52.6665306 L205.489057,52.6665306 L198.225503,74.7734694 L194.557768,74.7734694 L187.366131,52.6665306 L187.222298,52.6665306 L187.222298,83.9485714 L179.886827,83.9485714 Z M253.673029,32.5102041 L253.673029,72.3893878 C253.673029,74.0751105 253.373381,75.6283602 252.774074,77.0491837 C252.174768,78.4700071 251.323766,79.7342802 250.221043,80.8420408 C249.11832,81.9498015 247.84781,82.8167316 246.409475,83.4428571 C244.97114,84.0689827 243.43694,84.3820408 241.806827,84.3820408 C240.176714,84.3820408 238.6545,84.0689827 237.240137,83.4428571 C235.825775,82.8167316 234.567251,81.9498015 233.464527,80.8420408 C232.361804,79.7342802 231.498816,78.4700071 230.875538,77.0491837 C230.252259,75.6283602 229.940625,74.0751105 229.940625,72.3893878 L229.940625,32.5102041 L237.276095,32.5102041 L237.276095,71.6669388 C237.276095,73.497152 237.707589,74.84571 238.57059,75.7126531 C239.433591,76.5795962 240.512326,77.0130612 241.806827,77.0130612 C243.101328,77.0130612 244.180063,76.5795962 245.043064,75.7126531 C245.906065,74.84571 246.337559,73.497152 246.337559,71.6669388 L246.337559,32.5102041 L253.673029,32.5102041 Z M270.645293,83.9485714 L270.645293,32.5102041 L277.693098,32.5102041 L287.114144,59.7465306 L287.257976,59.7465306 L296.607105,32.5102041 L303.726827,32.5102041 L303.726827,83.9485714 L296.391356,83.9485714 L296.391356,52.6665306 L296.247523,52.6665306 L288.983969,74.7734694 L285.316234,74.7734694 L278.124597,52.6665306 L277.980764,52.6665306 L277.980764,83.9485714 L270.645293,83.9485714 Z" id="MINIMUM"></path>
        </g>
    </g>
</svg>