<?xml version="1.0" encoding="UTF-8"?>
<svg width="100pt" height="100pt" version="1.1" viewBox="0 0 100 100" xmlns="http://www.w3.org/2000/svg">
 <path d="m81.25 30.875h-62.5c-1.7188 0-3.125-1.4062-3.125-3.125s1.4062-3.125 3.125-3.125h62.5c1.7188 0 3.125 1.4062 3.125 3.125s-1.4062 3.125-3.125 3.125zm3.125 19.125c0-1.7188-1.4062-3.125-3.125-3.125h-62.5c-1.7188 0-3.125 1.4062-3.125 3.125s1.4062 3.125 3.125 3.125h62.5c1.7188 0 3.125-1.4062 3.125-3.125zm0 22.25c0-1.7188-1.4062-3.125-3.125-3.125h-62.5c-1.7188 0-3.125 1.4062-3.125 3.125s1.4062 3.125 3.125 3.125h62.5c1.7188 0 3.125-1.4062 3.125-3.125z" fill="#ee7d00"/>
</svg>
