<?xml version="1.0" encoding="UTF-8"?>
<svg width="100pt" height="100pt" version="1.1" viewBox="0 0 100 100" xmlns="http://www.w3.org/2000/svg">
 <path d="m50.148 12.012 1.5039 31.23 9.6094-27.625 11.109 3.6016-17.117 26.125 24.023-16.516 6.9102 9.6094-29.129 11.113 29.129 0.59766v11.715l-30.332-8.4102 23.422 17.719-6.9062 9.6094-19.52-24.324 8.4102 27.926-11.113 3.6055-1.5-31.23-9.9102 27.625-11.109-3.6016 17.117-26.125-24.023 16.516-6.9102-9.3086 29.43-11.113-29.43-0.60156v-11.711l30.332 8.1094-23.422-17.719 6.9062-9.6094 19.82 24.625-8.7109-28.227z" fill="#faebd6" fill-rule="evenodd"/>
</svg>
