<?xml version="1.0" encoding="UTF-8"?>
<svg width="100pt" height="100pt" version="1.1" viewBox="0 0 100 100" xmlns="http://www.w3.org/2000/svg">
 <g fill="#faebd6">
  <path d="m27.082 45.832c4.9727 0 9.7422-1.9727 13.258-5.4922 3.5195-3.5156 5.4922-8.2852 5.4922-13.258 0-4.9727-1.9727-9.7422-5.4922-13.258-3.5156-3.5156-8.2852-5.4922-13.258-5.4922-4.9727 0-9.7422 1.9766-13.258 5.4922s-5.4922 8.2852-5.4922 13.258c0.007813 4.9727 1.9844 9.7383 5.5 13.254 3.5156 3.5156 8.2812 5.4922 13.25 5.4961zm0-29.168v0.003907c4.2148 0 8.0117 2.5352 9.625 6.4297 1.6133 3.8906 0.72266 8.3711-2.2578 11.352s-7.4609 3.8711-11.352 2.2578c-3.8945-1.6133-6.4297-5.4102-6.4297-9.625 0.003906-5.75 4.6641-10.41 10.414-10.414z"/>
  <path d="m72.918 8.332c-4.9727 0-9.7422 1.9766-13.258 5.4922-3.5195 3.5156-5.4922 8.2852-5.4922 13.258 0 4.9727 1.9727 9.7422 5.4922 13.258 3.5156 3.5195 8.2852 5.4922 13.258 5.4922 4.9727 0 9.7422-1.9727 13.258-5.4922 3.5156-3.5156 5.4922-8.2852 5.4922-13.258-0.007813-4.9688-1.9844-9.7344-5.5-13.25s-8.2812-5.4922-13.25-5.5zm0 29.168c-4.2148 0-8.0117-2.5391-9.625-6.4297-1.6133-3.8945-0.72266-8.375 2.2578-11.352 2.9805-2.9805 7.4609-3.8711 11.352-2.2578 3.8945 1.6094 6.4297 5.4102 6.4297 9.6211-0.003906 5.75-4.6641 10.41-10.414 10.418z"/>
  <path d="m72.918 54.168c-4.9727 0-9.7422 1.9727-13.258 5.4922-3.5195 3.5156-5.4922 8.2852-5.4922 13.258 0 4.9727 1.9727 9.7422 5.4922 13.258 3.5156 3.5156 8.2852 5.4922 13.258 5.4922 4.9727 0 9.7422-1.9766 13.258-5.4922s5.4922-8.2852 5.4922-13.258c-0.007813-4.9727-1.9844-9.7383-5.5-13.254-3.5156-3.5156-8.2812-5.4922-13.25-5.4961zm0 29.168v-0.003907c-4.2148 0-8.0117-2.5352-9.625-6.4297-1.6133-3.8906-0.72266-8.3711 2.2578-11.352s7.4609-3.8711 11.352-2.2578c3.8945 1.6133 6.4297 5.4102 6.4297 9.625-0.003906 5.75-4.6641 10.41-10.414 10.414z"/>
  <path d="m27.082 91.668c4.9727 0 9.7422-1.9766 13.258-5.4922 3.5195-3.5156 5.4922-8.2852 5.4922-13.258 0-4.9727-1.9727-9.7422-5.4922-13.258-3.5156-3.5195-8.2852-5.4922-13.258-5.4922-4.9727 0-9.7422 1.9727-13.258 5.4922-3.5156 3.5156-5.4922 8.2852-5.4922 13.258 0.007813 4.9688 1.9844 9.7344 5.5 13.25s8.2812 5.4922 13.25 5.5zm0-29.168c4.2148 0 8.0117 2.5391 9.625 6.4297 1.6133 3.8945 0.72266 8.375-2.2578 11.352-2.9805 2.9805-7.4609 3.8711-11.352 2.2578-3.8945-1.6094-6.4297-5.4102-6.4297-9.6211 0.003906-5.75 4.6641-10.41 10.414-10.418z"/>
 </g>
</svg>
