<?xml version="1.0" encoding="UTF-8"?>
<svg width="100pt" height="100pt" version="1.1" viewBox="0 0 100 100" xmlns="http://www.w3.org/2000/svg">
 <path d="m92.449 68.031h-84.801c-3.1211 0-5.6562 2.5312-5.6562 5.6562v4.4531c0 3.125 2.5352 5.6602 5.6562 5.6602h84.801c3.125 0 5.6562-2.5352 5.6562-5.6602v-4.4531c0-3.125-2.5312-5.6562-5.6562-5.6562m-0.058594 5.7148 0.058594 4.3398-84.742 0.054687-0.058593-4.3945h84.742m0.058594-32.535h-84.801c-3.1211 0-5.6562 2.5352-5.6562 5.6602v4.457c0 3.1211 2.5352 5.6562 5.6562 5.6562h84.801c3.125 0 5.6562-2.5352 5.6562-5.6562v-4.457c0-3.125-2.5312-5.6602-5.6562-5.6602m-0.058594 5.7148 0.058594 4.3438-84.742 0.058594-0.058593-4.4023h84.742m0.058594-32.527h-84.801c-3.1211 0-5.6562 2.5312-5.6562 5.6562v4.457c0 3.125 2.5352 5.6562 5.6562 5.6562h84.801c3.125 0 5.6562-2.5312 5.6562-5.6562v-4.457c0-3.125-2.5312-5.6562-5.6562-5.6562m-0.058594 5.7148 0.058594 4.3398-84.742 0.058594-0.058593-4.3984h84.742" fill="#faebd6" fill-rule="evenodd"/>
</svg>
