<?xml version="1.0" encoding="UTF-8"?>
<svg width="100pt" height="100pt" version="1.1" viewBox="0 0 100 100" xmlns="http://www.w3.org/2000/svg">
 <path d="m49.996 0c-10.336 0-18.75 8.4141-18.75 18.75v6.25h6.25v-6.25c0-6.8945 5.6055-12.5 12.5-12.5 3.3125 0 6.5391 1.3242 8.8516 3.6445 2.3555 2.3555 3.6484 5.5 3.6484 8.8555v6.25h6.25v-6.25c0-5.0234-1.9492-9.7383-5.4805-13.27-3.4766-3.4805-8.3125-5.4805-13.27-5.4805zm18.75 25v15.625c0 1.7266-1.3984 3.125-3.125 3.125-1.7266 0-3.125-1.3984-3.125-3.125v-15.625h-25v15.625c0 1.7266-1.3984 3.125-3.125 3.125-1.7266 0-3.125-1.3984-3.125-3.125v-15.625h-9.375c-1.6172 0-2.9688 1.2305-3.1133 2.8438l-5.3203 58.523c-0.32031 3.4922 0.85547 6.9766 3.2188 9.5625 2.3633 2.5859 5.7266 4.0703 9.2305 4.0703h48.219c3.5 0 6.8633-1.4805 9.2266-4.0625 2.3672-2.5859 3.5391-6.0742 3.2305-9.5625l-5.332-58.531c-0.14453-1.6133-1.4922-2.8438-3.1133-2.8438zm-18.75 27.344c1.7266 0 3.125 1.3984 3.125 3.125v10.156h10.156c1.7266 0 3.125 1.3984 3.125 3.125s-1.3984 3.125-3.125 3.125h-10.156v10.156c0 1.7266-1.3984 3.125-3.125 3.125-1.7266 0-3.125-1.3984-3.125-3.125v-10.156h-10.156c-1.7266 0-3.125-1.3984-3.125-3.125s1.3984-3.125 3.125-3.125h10.156v-10.156c0-1.7266 1.3984-3.125 3.125-3.125z" fill="#faebd6"/>
</svg>
