<?xml version="1.0" encoding="UTF-8"?>
<svg width="100pt" height="100pt" version="1.1" viewBox="0 0 100 100" xmlns="http://www.w3.org/2000/svg">
 <g fill="#faebd6">
  <path d="m50 100c-13.262 0-25.98-5.2695-35.355-14.645s-14.645-22.094-14.645-35.355 5.2695-25.98 14.645-35.355 22.094-14.645 35.355-14.645 25.98 5.2695 35.355 14.645 14.645 22.094 14.645 35.355-5.2695 25.98-14.645 35.355-22.094 14.645-35.355 14.645zm0-93.75c-11.602 0-22.73 4.6094-30.938 12.812-8.2031 8.207-12.812 19.336-12.812 30.938s4.6094 22.73 12.812 30.938c8.207 8.2031 19.336 12.812 30.938 12.812s22.73-4.6094 30.938-12.812c8.2031-8.207 12.812-19.336 12.812-30.938s-4.6094-22.73-12.812-30.938c-8.207-8.2031-19.336-12.812-30.938-12.812z"/>
  <path d="m25 46.875h50v6.25h-50z"/>
  <path d="m25 31.25h50v6.25h-50z"/>
  <path d="m25 62.5h50v6.25h-50z"/>
 </g>
</svg>
